<?xml version="1.0" encoding="utf-8"?>
<!-- Generator: Adobe Illustrator 17.0.0, SVG Export Plug-In . SVG Version: 6.00 Build 0)  -->
<!DOCTYPE svg PUBLIC "-//W3C//DTD SVG 1.1//EN" "http://www.w3.org/Graphics/SVG/1.1/DTD/svg11.dtd">
<svg version="1.1" id="Livello_1" xmlns="http://www.w3.org/2000/svg" xmlns:xlink="http://www.w3.org/1999/xlink" x="0px" y="0px"
	 width="134.29px" height="155.91px" viewBox="0 0 134.29 155.91" enable-background="new 0 0 134.29 155.91" xml:space="preserve">
<g>
	<path fill="#9DDEE7" d="M100.76,38.201l-85.23,0.167v102.316c0,6.727,5.454,12.18,12.18,12.18h60.902
		c6.727,0,12.18-5.454,12.18-12.18V38.262L100.76,38.201z"/>
	<polygon fill="#FDC653" points="100.793,140.684 100.793,38.262 100.76,38.201 15.53,38.368 15.53,140.684 	"/>
	<path fill="#9DDEE7" d="M131.245,64.252v52.072c0,6.727-5.454,12.18-12.18,12.18h-18.271v-12.18h18.271V64.252h-18.271v-12.18
		h18.271C125.791,52.072,131.245,57.525,131.245,64.252z"/>
	<path fill="#FDE5CB" d="M106.564,24.882c2.317,10.284-8.291,18.512-18.255,13.444v25.71c0,3.362-2.725,6.09-6.09,6.09
		c-3.365,0-6.09-2.728-6.09-6.09v-12.18c0-4.205,0.152-11.964-13.399-11.964c-1.099,0-2.15,0.445-2.911,1.233
		c-2.768,2.862-6.647,4.641-10.944,4.641c-4.157,0-7.923-1.666-10.67-4.367c-0.984-0.965-2.308-1.507-3.752-1.507
		c-1.16,0-2.22,0.661-2.728,1.702c-2.942,6.023-9.053,10.201-16.194,10.262v24.294c-0.152,3.429-2.878,6.157-6.242,6.157
		s-6.242-2.728-6.242-6.09c0-3.985,0-32.315,0-36.541c0-14.486,12.793-26.017,27.637-24.114c4.157-7.409,12.11-12.515,21.237-12.515
		c7.217,0,13.7,3.225,18.161,8.213c1.839-1.163,4.02-1.818,6.352-1.818c5.314,0,9.833,3.401,11.495,8.146
		c2.616-1.754,5.95-2.521,9.467-1.766C101.865,16.776,105.562,20.424,106.564,24.882z"/>
	<path fill="#010101" d="M76.28,137.423c-1.681,0-3.045,1.364-3.045,3.045c0,1.681,1.364,3.045,3.045,3.045s3.045-1.364,3.045-3.045
		S77.961,137.423,76.28,137.423z"/>
	<path fill="#010101" d="M33.496,60.991c-1.682,0-3.045,1.363-3.045,3.045v58.162c0,1.682,1.363,3.045,3.045,3.045
		c1.682,0,3.045-1.363,3.045-3.045V64.036C36.541,62.354,35.178,60.991,33.496,60.991z"/>
	<path fill="#010101" d="M57.857,60.991c-1.682,0-3.045,1.363-3.045,3.045v58.162c0,1.682,1.363,3.045,3.045,3.045
		s3.045-1.363,3.045-3.045V64.036C60.902,62.354,59.539,60.991,57.857,60.991z"/>
	<path fill="#010101" d="M27.711,155.91h60.902c8.395,0,15.226-6.83,15.226-15.226v-9.135h15.226c8.395,0,15.226-6.83,15.226-15.226
		V64.252c0-8.395-6.83-15.226-15.226-15.226h-15.226v-9.214c4.773-3.578,7.042-9.627,5.697-15.598
		c-1.259-5.6-5.881-10.17-11.501-11.372c-2.988-0.641-5.996-0.414-8.738,0.628c-2.749-4.334-7.577-7.075-12.864-7.075
		c-1.993,0-3.94,0.386-5.741,1.13C65.595,2.717,58.875,0,51.919,0c-9.201,0-17.782,4.687-22.848,12.357
		C13.155,11.476,0,24.104,0,39.675v36.541c0,5.037,4.166,9.135,9.288,9.135c1.123,0,2.2-0.204,3.197-0.576v55.909
		C12.485,149.08,19.315,155.91,27.711,155.91z M88.613,149.82H27.711c-3.97,0-7.355-2.546-8.612-6.09h45.004
		c1.682,0,3.045-1.363,3.045-3.045s-1.363-3.045-3.045-3.045H18.575v-61.49V54.662c6.84-1.033,12.763-5.341,15.877-11.725
		c0.635,0,1.195,0.22,1.617,0.634c3.437,3.379,7.984,5.24,12.805,5.24c4.996,0,9.661-1.978,13.135-5.571
		c0.186-0.192,0.449-0.303,0.72-0.303c4.74,0,7.842,1.013,9.22,3.009c1.136,1.646,1.135,3.933,1.134,5.77v12.32
		c0,3.97,2.546,7.355,6.09,8.612v49.55c0,1.682,1.363,3.045,3.045,3.045c1.682,0,3.045-1.363,3.045-3.045v-49.55
		c3.544-1.257,6.09-4.642,6.09-8.612V42.579c2.133,0.426,4.31,0.428,6.395,0.002v95.059h-9.291c-1.682,0-3.045,1.363-3.045,3.045
		s1.363,3.015,3.045,3.015h8.767C95.967,147.243,92.583,149.82,88.613,149.82z M103.839,67.297h12.18v45.981h-12.18V67.297z
		 M119.064,55.117c5.037,0,9.135,4.098,9.135,9.135v52.072c0,5.037-4.098,9.135-9.135,9.135h-15.226v-6.09h15.226
		c1.682,0,3.045-1.363,3.045-3.045V64.252c0-1.682-1.363-3.045-3.045-3.045h-15.226v-6.09H119.064z M9.288,79.261
		c-1.733,0-3.197-1.395-3.197-3.045V39.675c0-11.753,9.617-21.271,21.44-21.271c0.919,0,1.842,0.058,2.765,0.177
		c1.232,0.158,2.435-0.448,3.043-1.53c3.793-6.76,10.913-10.96,18.581-10.96c6.008,0,11.8,2.623,15.892,7.198
		c0.991,1.109,2.64,1.339,3.897,0.544c1.393-0.881,3.026-1.347,4.724-1.347c3.876,0,7.341,2.455,8.622,6.108
		c0.312,0.889,1.017,1.584,1.911,1.882c0.894,0.298,1.875,0.165,2.658-0.36c2.076-1.392,4.608-1.86,7.134-1.318
		c3.289,0.703,6.099,3.48,6.835,6.754c1.733,7.693-6.153,14.004-13.904,10.061c-0.944-0.48-2.069-0.435-2.973,0.118
		c-0.903,0.554-1.453,1.537-1.453,2.596v25.71c0,1.679-1.366,3.045-3.045,3.045s-3.045-1.366-3.045-3.045V51.718
		c0.001-2.398,0.002-6.023-2.211-9.231c-2.582-3.743-7.37-5.64-14.232-5.64c-1.915,0-3.775,0.788-5.1,2.162
		c-2.315,2.394-5.424,3.712-8.755,3.712c-3.214,0-6.245-1.24-8.537-3.495c-1.563-1.534-3.653-2.379-5.885-2.379
		c-2.308,0-4.453,1.339-5.465,3.411c-2.552,5.227-7.719,8.504-13.484,8.553c-1.671,0.014-3.019,1.373-3.019,3.045v24.216
		C12.377,77.865,10.983,79.261,9.288,79.261z"/>
</g>
</svg>
