<?xml version="1.0" encoding="utf-8"?>
<!-- Generator: Adobe Illustrator 17.0.0, SVG Export Plug-In . SVG Version: 6.00 Build 0)  -->
<!DOCTYPE svg PUBLIC "-//W3C//DTD SVG 1.1//EN" "http://www.w3.org/Graphics/SVG/1.1/DTD/svg11.dtd">
<svg version="1.1" id="Livello_1" xmlns="http://www.w3.org/2000/svg" xmlns:xlink="http://www.w3.org/1999/xlink" x="0px" y="0px"
	 width="157.323px" height="157.323px" viewBox="0 0 157.323 157.323" enable-background="new 0 0 157.323 157.323"
	 xml:space="preserve">
<g>
	<g>
		<path d="M79.836,125.597c-12.013-0.346-23.92-1.19-35.51-4.555c-8.257-2.397-15.977-5.832-21.96-12.284
			c-1.259-1.357-2.343-2.931-3.234-4.555c-0.598-1.09-1.337-1.696-2.444-2.108c-4.159-1.548-8.122-3.475-11.584-6.307
			c-0.526-0.43-1.031-0.892-1.506-1.377c-4.855-4.96-4.789-10.899,0.195-15.737c3.741-3.632,8.332-5.885,13.156-7.576
			c4.529-1.587,9.17-2.882,13.821-4.075c1.723-0.442,2.834-1.176,3.799-2.674c3.732-5.793,8.385-10.74,14.418-14.176
			c2.208-1.258,3.916-2.768,5.426-4.85c4.426-6.103,10.708-8.014,17.99-7.161c3.891,0.456,7.482,1.69,10.665,4.063
			c0.533,0.397,1.376,0.461,2.089,0.52c5.816,0.487,10.557,2.777,13.7,7.914c0.29,0.474,1.014,0.899,1.575,0.956
			c9.855,0.998,17.763,5.458,23.697,13.35c0.991,1.318,2.106,1.978,3.671,2.341c7.299,1.692,14.483,3.798,20.876,7.836
			c2.264,1.43,4.41,3.234,6.151,5.262c3.365,3.918,3.251,8.536,0.058,12.59c-3.198,4.061-7.617,6.413-12.271,8.259
			c-2.373,0.941-3.914,2.203-5.143,4.544c-3.114,5.932-8.55,9.398-14.426,12.173c-7.191,3.396-14.864,5.183-22.705,6.069
			C93.536,124.807,86.674,125.096,79.836,125.597z M88.603,48.82c0.587,1.743,1.192,3.247,1.6,4.803
			c1.81,6.903,1.068,13.723-0.88,20.461c-1.586,5.484-4.084,10.549-7.385,15.21c-1.159,1.637-2.716,2.047-4.053,1.104
			c-1.296-0.915-1.399-2.53-0.264-4.199c0.255-0.375,0.529-0.737,0.776-1.118c5.056-7.809,7.915-16.262,7.403-25.667
			c-0.207-3.799-1.134-7.434-3.557-10.453c-4.281-5.335-10.078-6.309-16.411-5.233c-1.435,0.244-2.769,1.082-4.15,1.647
			c0.065,0.153,0.13,0.305,0.195,0.458c0.736,0,1.472-0.008,2.208,0.001c10.966,0.137,17.907,8.505,15.97,19.272
			c-1.647,9.157-6.252,16.922-11.557,24.34c-0.99,1.384-2.491,1.553-3.727,0.647c-1.232-0.903-1.458-2.344-0.537-3.761
			c1.081-1.663,2.242-3.274,3.297-4.953c2.366-3.763,4.465-7.661,5.926-12.02c-3.907,0.289-6.806,2.108-9.22,4.825
			c-3.273,3.684-5.056,8.139-6.575,12.736c-0.65,1.966-2.017,2.827-3.496,2.311c-1.585-0.554-2.223-1.981-1.501-3.919
			c1.065-2.858,2.105-5.75,3.48-8.464c2.623-5.179,6.227-9.529,11.883-11.581c2.143-0.777,4.476-1.03,7.082-1.6
			c-0.126-1.933-0.265-4.078-0.412-6.331c-1.087,0.061-1.767,0.043-2.428,0.144c-8.152,1.238-14.803,5.087-19.962,11.518
			c-3.788,4.722-6.162,10.129-7.728,15.929c-0.602,2.229-1.847,3.184-3.541,2.715c-1.587-0.44-2.216-1.935-1.578-4.031
			c0.658-2.163,1.299-4.343,2.148-6.434c4.911-12.098,13.24-20.534,26.063-24.09c0.509-0.141,1.017-0.283,1.756-0.489
			c-0.425-0.239-0.566-0.33-0.717-0.4c-0.205-0.094-0.413-0.185-0.628-0.254c-5.262-1.684-10.21-0.613-14.907,1.894
			c-8.509,4.542-14.149,11.727-18.116,20.313c-1.371,2.967-2.339,6.121-3.481,9.194c-0.484,1.303-1.322,2.1-2.793,2.014
			c-1.397-0.081-2.119-0.932-2.457-2.202c-0.08-0.3-0.146-0.603-0.27-1.119c-1.015,0.691-1.873,1.275-2.968,2.02
			c0.758,0.605,1.21,1.141,1.785,1.392c1.861,0.815,3.72,1.69,5.665,2.249c11.898,3.423,24.147,4.551,36.435,5.041
			c18.044,0.718,36.071,0.37,53.883-3.032c4.419-0.844,8.718-2.345,13.034-3.671c1.043-0.32,1.931-1.144,3.343-2.014
			c-1.894-1.076-3.235-1.838-4.758-2.704c-0.05,0.578-0.067,0.848-0.098,1.116c-0.171,1.459-0.87,2.458-2.423,2.6
			c-1.547,0.142-2.437-0.698-2.877-2.102c-0.169-0.539-0.289-1.094-0.449-1.636c-1.856-6.294-4.726-12.015-9.543-16.596
			c-4.377-4.162-9.57-6.661-15.731-7.604c0.189,1.464,0.354,2.738,0.488,3.775c2.486,0.844,4.99,1.333,7.138,2.488
			c8.219,4.418,11.424,12.178,13.213,20.744c0.299,1.432-0.721,2.663-2.055,2.863c-1.498,0.224-2.557-0.428-3.01-1.874
			c-0.507-1.618-0.843-3.291-1.393-4.893c-1.553-4.524-3.761-8.626-7.826-11.439c-1.783-1.234-3.74-1.972-5.902-2.125
			c-0.564,2.351-0.394,3.964,1.912,5.455c4.846,3.132,7.025,8.14,8.074,13.653c0.315,1.654-0.566,2.902-2.033,3.235
			c-1.345,0.306-2.616-0.596-3.098-2.223c-0.353-1.193-0.593-2.427-1.037-3.584c-1.038-2.708-2.444-5.175-5.077-6.956
			c-0.153,0.488-0.255,0.793-0.344,1.103c-1.011,3.532-1.971,7.08-3.048,10.592c-0.602,1.965-2.011,2.728-3.577,2.157
			c-1.464-0.534-1.934-1.979-1.457-3.831c1.337-5.195,2.818-10.368,3.824-15.629c0.887-4.635,0.906-9.374-0.469-13.987
			C94.597,52.98,92.533,50.194,88.603,48.82z M29.656,72.656c-7.097,1.874-13.931,3.837-19.887,7.964
			c-1.238,0.858-2.357,1.97-3.306,3.146c-1.543,1.913-1.671,3.897-0.08,5.748c1.413,1.644,3.126,3.136,4.961,4.288
			c4.786,3.005,10.141,4.708,15.559,6.173c13.914,3.761,28.15,5.291,42.498,5.746c16.974,0.539,33.893-0.196,50.627-3.377
			c7.792-1.481,15.519-3.294,22.677-6.828c2.559-1.264,5.036-2.873,7.181-4.748c2.821-2.465,2.73-5.325,0.105-7.978
			c-1.067-1.078-2.286-2.048-3.563-2.869c-4.568-2.938-9.652-4.682-14.829-6.181c-0.708-0.205-1.43-0.362-2.146-0.541
			c-0.11,0.208-0.22,0.417-0.331,0.625c0.742,0.534,1.428,1.18,2.236,1.581c2.621,1.302,5.392,2.336,7.902,3.817
			c2.004,1.182,3.071,3.192,2.663,5.655c-0.353,2.127-1.759,3.686-3.562,4.515c-3.576,1.644-7.202,3.359-10.99,4.331
			c-12.748,3.27-25.828,4.092-38.92,4.466c-11.001,0.315-21.999,0.092-32.975-0.92c-8.071-0.744-16.105-1.684-23.948-3.799
			c-4.104-1.107-8.214-2.314-11.439-5.302c-2.873-2.661-2.815-6.29,0.329-8.62c1.925-1.427,4.152-2.538,6.389-3.421
			C28.421,75.491,29.336,74.608,29.656,72.656z M131.509,105.292c-35.056,7.882-69.875,7.888-105.012,0.19
			c0.808,0.751,1.398,1.345,2.035,1.883c4.128,3.487,8.902,5.8,13.969,7.535c10.45,3.58,21.3,4.677,32.254,5.047
			c8.74,0.295,17.457-0.088,26.117-1.31c7.366-1.039,14.563-2.76,21.259-6.137C125.631,110.735,128.842,108.563,131.509,105.292z"/>
		<path fill="#FBF75F" d="M88.603,48.82c3.93,1.374,5.994,4.159,7.078,7.797c1.375,4.614,1.356,9.352,0.469,13.987
			c-1.007,5.261-2.488,10.434-3.824,15.629c-0.477,1.852-0.007,3.297,1.457,3.831c1.567,0.572,2.975-0.192,3.577-2.157
			c1.077-3.512,2.037-7.06,3.048-10.592c0.089-0.309,0.191-0.615,0.344-1.103c2.634,1.781,4.039,4.248,5.077,6.956
			c0.443,1.157,0.683,2.391,1.037,3.584c0.482,1.627,1.752,2.528,3.098,2.223c1.467-0.333,2.348-1.581,2.033-3.235
			c-1.049-5.513-3.228-10.521-8.074-13.653c-2.307-1.491-2.476-3.104-1.912-5.455c2.162,0.153,4.119,0.89,5.902,2.125
			c4.064,2.813,6.273,6.915,7.826,11.439c0.55,1.602,0.886,3.275,1.393,4.893c0.453,1.446,1.511,2.098,3.01,1.874
			c1.334-0.2,2.354-1.431,2.055-2.863c-1.789-8.566-4.993-16.326-13.213-20.744c-2.147-1.154-4.652-1.644-7.138-2.488
			c-0.134-1.037-0.299-2.311-0.488-3.775c6.16,0.943,11.354,3.442,15.731,7.604c4.817,4.581,7.687,10.302,9.543,16.596
			c0.16,0.542,0.28,1.097,0.449,1.636c0.44,1.404,1.33,2.243,2.877,2.102c1.553-0.142,2.252-1.141,2.423-2.6
			c0.031-0.268,0.048-0.538,0.098-1.116c1.524,0.866,2.864,1.628,4.758,2.704c-1.411,0.871-2.3,1.694-3.343,2.014
			c-4.316,1.326-8.615,2.827-13.034,3.671c-17.812,3.402-35.84,3.75-53.883,3.032c-12.288-0.489-24.537-1.617-36.435-5.041
			c-1.944-0.559-3.803-1.434-5.665-2.249c-0.575-0.252-1.027-0.787-1.785-1.392c1.095-0.745,1.953-1.329,2.968-2.02
			c0.124,0.516,0.19,0.819,0.27,1.119c0.337,1.27,1.06,2.121,2.457,2.202c1.471,0.086,2.308-0.711,2.793-2.014
			c1.142-3.072,2.11-6.226,3.481-9.194c3.967-8.586,9.607-15.771,18.116-20.313c4.697-2.507,9.645-3.578,14.907-1.894
			c0.214,0.069,0.423,0.16,0.628,0.254c0.152,0.07,0.293,0.162,0.717,0.4c-0.739,0.206-1.247,0.348-1.756,0.489
			c-12.822,3.556-21.152,11.992-26.063,24.09c-0.849,2.091-1.49,4.271-2.148,6.434c-0.638,2.096-0.009,3.591,1.578,4.031
			c1.694,0.469,2.94-0.486,3.541-2.715c1.565-5.8,3.939-11.207,7.728-15.929c5.159-6.431,11.81-10.28,19.962-11.518
			c0.661-0.1,1.341-0.083,2.428-0.144c0.147,2.254,0.286,4.399,0.412,6.331c-2.606,0.571-4.94,0.823-7.082,1.6
			c-5.656,2.052-9.26,6.401-11.883,11.581c-1.374,2.714-2.415,5.605-3.48,8.464c-0.722,1.938-0.084,3.365,1.501,3.919
			c1.479,0.516,2.846-0.345,3.496-2.311c1.519-4.596,3.303-9.052,6.575-12.736c2.414-2.717,5.313-4.536,9.22-4.825
			c-1.461,4.359-3.56,8.257-5.926,12.02c-1.055,1.678-2.217,3.29-3.297,4.953c-0.921,1.417-0.695,2.858,0.537,3.761
			c1.235,0.906,2.737,0.736,3.727-0.647c5.305-7.418,9.91-15.183,11.557-24.34c1.937-10.767-5.004-19.134-15.97-19.272
			c-0.736-0.009-1.472-0.001-2.208-0.001c-0.065-0.153-0.13-0.305-0.195-0.458c1.381-0.565,2.715-1.403,4.15-1.647
			c6.333-1.077,12.13-0.103,16.411,5.233c2.422,3.019,3.35,6.654,3.557,10.453c0.512,9.405-2.347,17.858-7.403,25.667
			c-0.246,0.381-0.521,0.743-0.776,1.118c-1.135,1.669-1.032,3.284,0.264,4.199c1.337,0.944,2.893,0.533,4.053-1.104
			c3.301-4.661,5.799-9.726,7.385-15.21c1.948-6.738,2.691-13.558,0.88-20.461C89.795,52.067,89.189,50.563,88.603,48.82z"/>
		<path fill="#E5E2D6" d="M29.656,72.656c-0.32,1.952-1.234,2.835-2.847,3.472c-2.237,0.883-4.464,1.994-6.389,3.421
			c-3.144,2.33-3.202,5.959-0.329,8.62c3.226,2.987,7.336,4.195,11.439,5.302c7.843,2.115,15.877,3.055,23.948,3.799
			c10.976,1.012,21.974,1.235,32.975,0.92c13.092-0.374,26.172-1.196,38.92-4.466c3.788-0.972,7.414-2.687,10.99-4.331
			c1.804-0.829,3.21-2.388,3.562-4.515c0.408-2.463-0.658-4.473-2.663-5.655c-2.51-1.481-5.281-2.515-7.902-3.817
			c-0.808-0.401-1.494-1.047-2.236-1.581c0.11-0.208,0.221-0.417,0.331-0.625c0.716,0.179,1.437,0.336,2.146,0.541
			c5.177,1.498,10.261,3.243,14.829,6.181c1.277,0.821,2.496,1.791,3.563,2.869c2.625,2.653,2.716,5.513-0.105,7.978
			c-2.145,1.874-4.622,3.484-7.181,4.748c-7.158,3.535-14.885,5.348-22.677,6.828c-16.734,3.18-33.653,3.916-50.627,3.377
			c-14.348-0.455-28.584-1.985-42.498-5.746c-5.418-1.465-10.773-3.167-15.559-6.173c-1.836-1.153-3.548-2.645-4.961-4.288
			c-1.591-1.851-1.463-3.835,0.08-5.748c0.949-1.176,2.068-2.288,3.306-3.146C15.725,76.493,22.558,74.53,29.656,72.656z"/>
		<path fill="#E5E2D6" d="M131.509,105.292c-2.667,3.271-5.878,5.443-9.379,7.209c-6.696,3.377-13.893,5.098-21.259,6.137
			c-8.66,1.222-17.378,1.604-26.117,1.31c-10.954-0.37-21.804-1.467-32.254-5.047c-5.067-1.736-9.84-4.049-13.969-7.535
			c-0.637-0.538-1.227-1.133-2.035-1.883C61.634,113.18,96.453,113.174,131.509,105.292z"/>
	</g>
	<circle fill="#C9001A" stroke="#000000" stroke-width="4.0857" stroke-miterlimit="10" cx="75.248" cy="74.608" r="9.661"/>
	<circle fill="#C9001A" stroke="#000000" stroke-width="4.0857" stroke-miterlimit="10" cx="43.908" cy="59.785" r="9.661"/>
	<circle fill="#C9001A" stroke="#000000" stroke-width="4.0857" stroke-miterlimit="10" cx="96.953" cy="52.999" r="9.661"/>
	<circle fill="#C9001A" stroke="#000000" stroke-width="4.0857" stroke-miterlimit="10" cx="113.977" cy="81.783" r="9.661"/>
	<path fill="#5EB550" stroke="#000000" stroke-width="4.0857" stroke-linejoin="round" stroke-miterlimit="10" d="M75.561,42.762
		c-2.995,3.59-8.41,4.009-8.41,4.009s-0.559-5.402,2.436-8.993s8.41-4.009,8.41-4.009S78.556,39.171,75.561,42.762z"/>
	
		<path fill="#5EB550" stroke="#000000" stroke-width="4.0857" stroke-linecap="round" stroke-linejoin="round" stroke-miterlimit="10" d="
		M64.7,37.685c3.051,3.543,2.577,8.953,2.577,8.953s-5.421-0.334-8.472-3.877c-3.051-3.543-2.577-8.953-2.577-8.953
		S61.649,34.142,64.7,37.685z"/>
</g>
</svg>
