<?xml version="1.0" encoding="utf-8"?>
<!-- Generator: Adobe Illustrator 17.0.0, SVG Export Plug-In . SVG Version: 6.00 Build 0)  -->
<!DOCTYPE svg PUBLIC "-//W3C//DTD SVG 1.1//EN" "http://www.w3.org/Graphics/SVG/1.1/DTD/svg11.dtd">
<svg version="1.1" id="Livello_1" xmlns="http://www.w3.org/2000/svg" xmlns:xlink="http://www.w3.org/1999/xlink" x="0px" y="0px"
	 width="144.532px" height="144.533px" viewBox="0 0 144.532 144.533" enable-background="new 0 0 144.532 144.533"
	 xml:space="preserve">
<g>
	<path fill="#FFC985" d="M27.87,47.44c2.626,16.794,10.407,32.935,23.346,45.874c12.941,12.941,29.081,20.721,45.875,23.347
		c1.398,0.218,2.714,0.656,3.915,1.274l0.022-0.022L142.196,2.335L26.618,43.503l-0.022,0.022
		C27.214,44.726,27.652,46.042,27.87,47.44z"/>
	<path fill="#EDB06C" d="M27.87,47.44c2.626,16.794,10.407,32.935,23.346,45.874c9.329,9.329,20.319,15.974,32.019,19.943
		c-7.632-3.873-14.792-8.997-21.173-15.377C49.122,84.94,41.341,68.799,38.715,52.005c-0.218-1.398-0.692-2.678-1.31-3.879
		l101.352-36.133l3.439-9.658L26.618,43.503l-0.022,0.022C27.214,44.726,27.652,46.042,27.87,47.44z"/>
	<path fill="#FFC985" d="M14.893,36.554c6.446-0.145,11.982,4.516,12.977,10.886c2.626,16.794,10.407,32.935,23.346,45.874
		c12.941,12.941,29.081,20.721,45.875,23.347c6.37,0.995,11.031,6.532,10.886,12.977c-0.178,7.962-7.484,13.843-15.301,12.319
		c-21.535-4.199-42.1-14.64-58.782-31.322C17.214,93.955,6.773,73.39,2.574,51.855C1.05,44.039,6.931,36.732,14.893,36.554z"/>
	<path fill="#EDB06C" d="M14.893,36.554c6.446-0.145,11.982,4.516,12.977,10.886c2.626,16.794,10.407,32.935,23.346,45.874
		c12.941,12.941,29.081,20.721,45.875,23.347c6.37,0.995,11.031,6.532,10.886,12.977c-0.178,7.962-7.484,13.843-15.301,12.319
		c-21.535-4.199-42.1-14.64-58.782-31.322C17.214,93.955,6.773,73.39,2.574,51.855C1.05,44.039,6.931,36.732,14.893,36.554z"/>
	<path fill="#E39951" d="M7.616,43.831c6.446-0.145,11.982,4.516,12.977,10.886c2.625,16.795,10.406,32.936,23.345,45.875
		c12.941,12.941,29.081,20.721,45.876,23.346c6.371,0.996,11.031,6.532,10.887,12.978c-0.036,1.558-0.347,3.035-0.878,4.394
		c4.623-1.82,8.034-6.264,8.154-11.671c0.144-6.446-4.516-11.982-10.887-12.978c-16.794-2.626-32.935-10.407-45.875-23.347
		c-12.94-12.94-20.72-29.08-23.346-45.874c-0.996-6.371-6.532-11.031-12.978-10.887c-5.406,0.122-9.851,3.531-11.671,8.154
		C4.581,44.177,6.057,43.866,7.616,43.831z"/>
	<g>
		<path fill="#FC3331" d="M77.253,80.928c4.864-4.864,12.748-4.864,17.612,0c4.864,4.864,4.864,12.748,0,17.612
			c-4.864,4.864-12.748,4.864-17.612,0C72.39,93.676,72.39,85.792,77.253,80.928z"/>
		<path fill="#FC3331" d="M97.727,33.596c3.648-3.648,9.561-3.647,13.208,0c3.648,3.648,3.649,9.561,0.001,13.209
			c-3.648,3.648-9.562,3.648-13.21,0C94.079,43.158,94.079,37.244,97.727,33.596z"/>
		<path fill="#FC3331" d="M51.495,41.081c3.648-3.648,9.562-3.648,13.21,0c3.648,3.648,3.648,9.562,0,13.21
			c-3.647,3.647-9.561,3.647-13.209-0.001C47.848,50.642,47.848,44.728,51.495,41.081z"/>
	</g>
	<path fill="#010101" d="M43.569,67.499c1.216-1.216,3.188-1.216,4.404,0c1.216,1.216,1.216,3.188,0,4.404
		c-1.216,1.216-3.187,1.215-4.403-0.001C42.354,70.686,42.353,68.715,43.569,67.499z"/>
	<path fill="#010101" d="M96.626,63.756c1.215-1.215,3.187-1.215,4.403,0.001c1.216,1.216,1.216,3.188,0.001,4.403
		c-1.216,1.216-3.188,1.216-4.404,0C95.41,66.944,95.41,64.972,96.626,63.756z"/>
	<path fill="#010101" d="M77.033,36.678c1.216-1.216,3.187-1.217,4.403-0.001s1.216,3.188,0,4.404s-3.188,1.216-4.404,0
		C75.816,39.865,75.817,37.894,77.033,36.678z"/>
	<path fill="#010101" d="M53.891,33.789c0.433,1.214,1.768,1.849,2.983,1.416l81.473-29.021l-29.02,81.473
		c-0.433,1.214,0.202,2.55,1.416,2.983c1.216,0.433,2.551-0.201,2.984-1.416l30.671-86.106c0.301-0.85,0.089-1.797-0.549-2.434
		c-0.638-0.638-1.585-0.851-2.434-0.549L55.308,30.806C54.092,31.238,53.458,32.574,53.891,33.789z"/>
	<path fill="#010101" d="M3.358,39.874c-2.813,3.494-3.935,8.025-3.075,12.428c4.44,22.773,15.492,43.516,31.961,59.985
		c16.47,16.47,37.212,27.523,59.987,31.963c4.403,0.859,8.933-0.263,12.427-3.076c3.493-2.813,5.554-6.998,5.655-11.482
		c0.092-4.116-1.527-8.148-4.441-11.062c-0.627-0.627-1.302-1.191-2.015-1.694l6.329-17.768c0.312-0.878,0.069-1.818-0.549-2.436
		c-0.237-0.237-0.53-0.427-0.867-0.547c-1.215-0.433-2.551,0.201-2.984,1.417l-6.148,17.26c-0.709-0.221-1.438-0.391-2.184-0.508
		c-16.977-2.654-32.394-10.499-44.584-22.69S32.832,64.056,30.178,47.08c-0.118-0.746-0.289-1.476-0.509-2.185l17.261-6.148
		c1.215-0.433,1.849-1.769,1.417-2.984c-0.121-0.337-0.31-0.63-0.547-0.868c-0.617-0.617-1.558-0.862-2.436-0.549l-17.768,6.329
		c-0.502-0.713-1.066-1.388-1.694-2.015c-2.915-2.915-6.946-4.533-11.062-4.441C10.356,34.32,6.171,36.381,3.358,39.874z
		 M14.945,38.888c2.89-0.065,5.609,1.028,7.656,3.075c0.782,0.782,1.425,1.668,1.92,2.632c0.009,0.017,0.02,0.035,0.029,0.051
		c0.496,0.982,0.84,2.042,1.013,3.156c2.808,17.961,11.109,34.271,24.003,47.164c12.895,12.895,29.204,21.196,47.165,24.004
		c1.114,0.174,2.175,0.516,3.156,1.013c0.017,0.01,0.033,0.02,0.051,0.029c0.964,0.496,1.85,1.138,2.633,1.921
		c2.047,2.047,3.139,4.765,3.074,7.655c-0.07,3.104-1.496,6.002-3.915,7.949c-2.42,1.948-5.555,2.725-8.605,2.13
		c-21.857-4.262-41.768-14.872-57.578-30.682C19.737,93.176,9.128,73.265,4.866,51.407c-0.594-3.048,0.181-6.184,2.13-8.604
		C8.944,40.385,11.84,38.958,14.945,38.888z"/>
	<path fill="#010101" d="M75.602,100.192c5.766,5.766,15.148,5.765,20.915-0.001s5.766-15.148,0-20.914s-15.148-5.767-20.915-0.001
		S69.835,94.426,75.602,100.192z M93.214,82.579c3.945,3.945,3.945,10.365,0,14.31c-3.946,3.946-10.365,3.945-14.31,0
		c-3.946-3.946-3.946-10.364,0-14.31C82.849,78.634,89.268,78.634,93.214,82.579z"/>
	<path fill="#010101" d="M112.587,48.456c4.552-4.552,4.553-11.959,0-16.512c-4.552-4.552-11.959-4.551-16.511,0.001
		c-4.553,4.553-4.553,11.959-0.001,16.511C100.628,53.009,108.034,53.009,112.587,48.456z M99.377,45.154
		c-2.731-2.731-2.731-7.175,0.001-9.907c2.731-2.731,7.175-2.731,9.906,0c2.731,2.732,2.731,7.176,0.001,9.907
		C106.553,47.885,102.109,47.885,99.377,45.154z"/>
	<path fill="#010101" d="M66.355,39.43c-4.552-4.552-11.959-4.553-16.512,0c-4.552,4.552-4.551,11.959,0.001,16.511
		s11.959,4.553,16.511,0.001C70.908,51.389,70.907,43.982,66.355,39.43z M53.147,52.639c-2.732-2.732-2.731-7.175,0-9.906
		c2.732-2.732,7.175-2.732,9.907-0.001c2.732,2.732,2.731,7.175-0.001,9.907C60.322,55.37,55.878,55.371,53.147,52.639z"/>
	<path fill="#010101" d="M84.738,63.097c0.913-0.913,0.913-2.391,0-3.304c-2.548-2.548-2.548-6.697,0-9.245
		c0.912-0.912,0.912-2.39,0-3.302s-2.39-0.912-3.302,0c-4.37,4.37-4.371,11.48-0.001,15.85
		C82.348,64.009,83.826,64.009,84.738,63.097z"/>
	<path fill="#010101" d="M61.293,68.27c-0.912-0.912-2.39-0.912-3.303,0.001c-0.912,0.912-0.912,2.39,0,3.302
		c2.549,2.549,2.548,6.697,0,9.245c-0.912,0.912-0.913,2.391-0.001,3.303c0.913,0.913,2.392,0.912,3.304,0
		C65.662,79.751,65.662,72.639,61.293,68.27z"/>
</g>
</svg>
